# xmcd
#
# Track frame offsets: 
#        183
#        17118
#        30580
#        48448
#        63845
#        83100
#        95538
#        127793
#        146365
#
# Disc length: 2402 seconds
#
# Revision: 0
# Processed by: cddbd v1.5.2PL0 Copyright (c) Steve Scherf et al.
# Submitted via: ExactAudioCopy v0.99pb4
#
DISCID=68096009
DTITLE=Mendelson Joe - Addicted
DYEAR=1991
DGENRE=Blues
TTITLE0=Passion
TTITLE1=Friendopause
TTITLE2=Threading the Needle
TTITLE3=Quality Love
TTITLE4=Addicted
TTITLE5=They Will Take Your Pants
TTITLE6=Air Canada Can
TTITLE7=Going Through the Motions
TTITLE8=Cockroach
EXTD=
EXTT0=
EXTT1=
EXTT2=
EXTT3=
EXTT4=
EXTT5=
EXTT6=
EXTT7=
EXTT8=
PLAYORDER=
